<svg xmlns="http://www.w3.org/2000/svg" viewBox="0 0 64 64" width="64" height="64">
  <defs>
    <linearGradient id="robotGradient" x1="0%" y1="0%" x2="100%" y2="100%">
      <stop offset="0%" style="stop-color:#059669;stop-opacity:1" />
      <stop offset="50%" style="stop-color:#10b981;stop-opacity:1" />
      <stop offset="100%" style="stop-color:#34d399;stop-opacity:1" />
    </linearGradient>
    <linearGradient id="eyeGradient" x1="0%" y1="0%" x2="100%" y2="100%">
      <stop offset="0%" style="stop-color:#3b82f6;stop-opacity:1" />
      <stop offset="100%" style="stop-color:#1d4ed8;stop-opacity:1" />
    </linearGradient>
  </defs>
  
  <!-- Robot Head -->
  <rect x="12" y="16" width="40" height="32" rx="8" ry="8" fill="url(#robotGradient)" stroke="#047857" stroke-width="2"/>
  
  <!-- Eyes -->
  <circle cx="22" cy="28" r="4" fill="url(#eyeGradient)"/>
  <circle cx="42" cy="28" r="4" fill="url(#eyeGradient)"/>
  
  <!-- Eye highlights -->
  <circle cx="23" cy="27" r="1.5" fill="white" opacity="0.8"/>
  <circle cx="43" cy="27" r="1.5" fill="white" opacity="0.8"/>
  
  <!-- Mouth/Speaker -->
  <rect x="26" y="36" width="12" height="6" rx="3" ry="3" fill="#047857"/>
  <rect x="28" y="37" width="2" height="4" rx="1" ry="1" fill="#34d399"/>
  <rect x="31" y="37" width="2" height="4" rx="1" ry="1" fill="#34d399"/>
  <rect x="34" y="37" width="2" height="4" rx="1" ry="1" fill="#34d399"/>
  
  <!-- Antenna -->
  <rect x="31" y="8" width="2" height="8" fill="#047857"/>
  <circle cx="32" cy="6" r="3" fill="#ef4444"/>
  <circle cx="32" cy="6" r="1.5" fill="#fca5a5" opacity="0.8"/>
  
  <!-- Side panels -->
  <rect x="8" y="22" width="4" height="12" rx="2" ry="2" fill="#047857"/>
  <rect x="52" y="22" width="4" height="12" rx="2" ry="2" fill="#047857"/>
  
  <!-- Circuit pattern -->
  <path d="M16 20 L20 20 L20 24 M44 20 L48 20 L48 24" stroke="#34d399" stroke-width="1" fill="none"/>
  <circle cx="20" cy="24" r="1" fill="#34d399"/>
  <circle cx="44" cy="24" r="1" fill="#34d399"/>
</svg>
